<svg width="130" height="135" viewBox="0 0 130 135" fill="none" xmlns="http://www.w3.org/2000/svg">
<path d="M14.5691 95.431V130.345C14.5691 132.693 17.3036 135 20.0896 135H109.911C112.697 135 115.431 132.693 115.431 130.345V95.431H14.5691ZM60.5644 120.024C60.5644 121.128 60.3694 122.056 59.9817 122.808C59.5917 123.56 59.0717 124.165 58.4194 124.621C57.7649 125.077 57.0141 125.396 56.1669 125.576C55.3196 125.755 54.4432 125.846 53.5467 125.846C53.0962 125.846 52.5694 125.797 51.9687 125.701C51.3681 125.606 50.7427 125.459 50.0994 125.257C49.4562 125.054 48.8375 124.826 48.2458 124.572C47.6518 124.319 47.152 124.032 46.7441 123.714L48.3063 121.137C48.5103 121.284 48.8017 121.439 49.1805 121.598C49.5593 121.756 49.9717 121.905 50.4222 122.042C50.8705 122.182 51.3412 122.301 51.832 122.408C52.3229 122.515 52.7824 122.566 53.2105 122.566C54.2908 122.566 55.156 122.347 55.7993 121.914C56.4425 121.481 56.7832 120.741 56.8258 119.703V101.755H60.5644V120.024ZM78.3543 121.728C78.0181 122.524 77.5429 123.225 76.9287 123.828C76.3146 124.43 75.5593 124.915 74.6605 125.275C73.7617 125.636 72.7396 125.815 71.5965 125.815C71.1056 125.815 70.6013 125.787 70.0791 125.736C69.5569 125.685 69.0301 125.592 68.5012 125.466C67.97 125.338 67.4634 125.164 66.9837 124.94C66.5041 124.717 66.0894 124.447 65.742 124.128L66.3853 121.391C66.67 121.561 67.0331 121.726 67.4724 121.884C67.9117 122.042 68.3644 122.191 68.8351 122.329C69.3036 122.468 69.7743 122.578 70.245 122.664C70.7134 122.748 71.1527 122.792 71.5629 122.792C72.8091 122.792 73.7639 122.489 74.4274 121.884C75.0908 121.279 75.4225 120.383 75.4225 119.196C75.4225 118.474 75.1872 117.86 74.7187 117.35C74.2481 116.84 73.6608 116.379 72.957 115.965C72.2532 115.551 71.4912 115.139 70.6731 114.724C69.855 114.31 69.0884 113.821 68.3756 113.26C67.6606 112.699 67.0667 112.036 66.5982 111.273C66.1275 110.509 65.8944 109.555 65.8944 108.41C65.8944 107.372 66.0782 106.447 66.4458 105.642C66.8134 104.837 67.3087 104.15 67.9319 103.589C68.555 103.028 69.2812 102.598 70.1082 102.3C70.9353 102.002 71.8094 101.855 72.7284 101.855C73.6675 101.855 74.6179 101.946 75.5772 102.125C76.5365 102.304 77.312 102.598 77.906 103C77.7827 103.275 77.6393 103.578 77.4779 103.908C77.3143 104.239 77.1596 104.544 77.0184 104.83C76.875 105.116 76.7517 105.356 76.6508 105.547C76.5477 105.738 76.4872 105.845 76.467 105.866C76.3438 105.803 76.207 105.719 76.0524 105.612C75.8977 105.505 75.6781 105.4 75.3934 105.293C75.1065 105.186 74.7277 105.114 74.2593 105.07C73.7886 105.025 73.1856 105.037 72.4505 105.102C72.0403 105.146 71.6548 105.265 71.285 105.468C70.9151 105.67 70.5879 105.917 70.3032 106.215C70.0163 106.513 69.79 106.846 69.6286 107.218C69.465 107.588 69.3843 107.946 69.3843 108.284C69.3843 109.131 69.6174 109.816 70.0881 110.337C70.5565 110.858 71.1393 111.312 71.8341 111.706C72.5289 112.099 73.282 112.481 74.1024 112.851C74.9182 113.221 75.6803 113.675 76.3863 114.203C77.0924 114.731 77.6774 115.397 78.1481 116.191C78.6165 116.987 78.8519 118.009 78.8519 119.261C78.8608 120.11 78.6905 120.932 78.3543 121.728Z" fill="white"/>
<path d="M115.431 90.7758V32.535C115.431 30.7521 115.225 29.4323 114.198 28.364L88.1155 1.28017C87.3332 0.467845 86.2484 0 85.1389 0H20.0896C17.4313 0 14.5691 2.13207 14.5691 6.81052V90.7758H115.431ZM66.1208 74.4827C66.1208 75.7676 65.1189 76.8103 63.8794 76.8103C62.64 76.8103 61.6381 75.7676 61.6381 74.4827V67.5C61.6381 66.2152 62.64 65.1724 63.8794 65.1724C65.1189 65.1724 66.1208 66.2152 66.1208 67.5V74.4827ZM84.0518 7.89284C84.0518 6.82681 85.2913 6.29379 86.0175 7.04793L108.644 30.5449C109.37 31.299 108.857 32.5862 107.831 32.5862H84.0518V7.89284ZM81.8105 53.5345V44.2241C81.8105 42.9416 80.8063 41.8965 79.5691 41.8965C78.3296 41.8965 77.3277 40.8538 77.3277 39.569C77.3277 38.2841 78.3296 37.2414 79.5691 37.2414C83.2763 37.2414 86.2932 40.3743 86.2932 44.2241V53.5345C86.2932 56.1018 88.3037 58.1896 90.776 58.1896C92.0155 58.1896 93.0174 59.2324 93.0174 60.5172C93.0174 61.8021 92.0155 62.8448 90.776 62.8448C88.3037 62.8448 86.2932 64.9327 86.2932 67.5V76.8103C86.2932 80.6602 83.2763 83.7931 79.5691 83.7931C78.3296 83.7931 77.3277 82.7503 77.3277 81.4655C77.3277 80.1807 78.3296 79.1379 79.5691 79.1379C80.8063 79.1379 81.8105 78.0928 81.8105 76.8103V67.5C81.8105 64.7069 83.0253 62.2257 84.9081 60.5172C83.0253 58.8088 81.8105 56.3276 81.8105 53.5345ZM63.8794 48.8793C65.7353 48.8793 67.2415 50.4434 67.2415 52.3707C67.2415 54.2979 65.7353 55.8621 63.8794 55.8621C62.0236 55.8621 60.5174 54.2979 60.5174 52.3707C60.5174 50.4434 62.0236 48.8793 63.8794 48.8793ZM36.9829 58.1896C39.4551 58.1896 41.4656 56.1018 41.4656 53.5345V44.2241C41.4656 40.3743 44.4825 37.2414 48.1898 37.2414C49.4293 37.2414 50.4312 38.2841 50.4312 39.569C50.4312 40.8538 49.4293 41.8965 48.1898 41.8965C46.9525 41.8965 45.9484 42.9416 45.9484 44.2241V53.5345C45.9484 56.3276 44.7336 58.8088 42.8508 60.5172C44.7336 62.2257 45.9484 64.7069 45.9484 67.5V76.8103C45.9484 78.0928 46.9525 79.1379 48.1898 79.1379C49.4293 79.1379 50.4312 80.1807 50.4312 81.4655C50.4312 82.7503 49.4293 83.7931 48.1898 83.7931C44.4825 83.7931 41.4656 80.6602 41.4656 76.8103V67.5C41.4656 64.9327 39.4551 62.8448 36.9829 62.8448C35.7434 62.8448 34.7415 61.8021 34.7415 60.5172C34.7415 59.2324 35.7434 58.1896 36.9829 58.1896Z" fill="white"/>
</svg>
