<svg width="130" height="130" viewBox="0 0 130 130" fill="none" xmlns="http://www.w3.org/2000/svg">
<path d="M47.8127 109.771C48.203 109.307 48.398 108.629 48.398 107.737C48.398 107.273 48.3377 106.874 48.217 106.539C48.0956 106.205 47.9334 105.927 47.7295 105.704C47.5249 105.481 47.293 105.318 47.033 105.216C46.7727 105.114 46.5127 105.063 46.2527 105.063H42.687V110.467H46.4199C46.9584 110.467 47.4227 110.235 47.8127 109.771Z" fill="white"/>
<path d="M85.1191 4.64282V26.3095H106.786L85.1191 4.64282Z" fill="white"/>
<path d="M75.8334 35.5952V0H18.5715V82.0238H111.429V35.5952H75.8334Z" fill="white"/>
<path d="M18.5715 130H111.429V91.3096H18.5715V130ZM79.068 101.052H87.5087C88.4561 101.052 89.3237 101.247 90.1133 101.637C90.9026 102.027 91.5802 102.538 92.1469 103.169C92.713 103.8 93.159 104.515 93.484 105.314C93.8087 106.113 93.9712 106.92 93.9712 107.737C93.9712 108.61 93.8183 109.446 93.5119 110.244C93.2055 111.043 92.778 111.758 92.2302 112.389C91.6823 113.021 91.0187 113.523 90.2384 113.894C89.4584 114.265 88.5948 114.451 87.6477 114.451H83.6362V120.83H79.0677V101.052H79.068ZM56.8658 101.052H61.4344V108.712H69.3183V101.052H73.8868V120.83H69.3183V112.724H61.4344V120.83H56.8658V101.052ZM38.1183 101.052H46.559C47.5064 101.052 48.374 101.247 49.1636 101.637C49.9529 102.027 50.6305 102.538 51.1972 103.169C51.7633 103.8 52.2093 104.515 52.534 105.314C52.859 106.113 53.0215 106.92 53.0215 107.737C53.0215 108.61 52.8683 109.446 52.5622 110.244C52.2558 111.043 51.8283 111.758 51.2805 112.389C50.7323 113.021 50.0687 113.523 49.2887 113.894C48.5084 114.265 47.6448 114.451 46.698 114.451H42.6865V120.83H38.118V101.052H38.1183Z" fill="white"/>
<path d="M88.7625 109.771C89.1525 109.307 89.3475 108.629 89.3475 107.737C89.3475 107.273 89.2871 106.874 89.1664 106.539C89.0454 106.205 88.8829 105.927 88.6789 105.704C88.4743 105.481 88.2425 105.318 87.9825 105.216C87.7222 105.114 87.4622 105.063 87.2025 105.063H83.6365V110.467H87.3696C87.9079 110.467 88.3722 110.235 88.7625 109.771Z" fill="white"/>
</svg>
