<svg width="130" height="130" viewBox="0 0 130 130" fill="none" xmlns="http://www.w3.org/2000/svg">
<g clip-path="url(#clip0)">
<path d="M102.678 29.9704C99.9314 29.5837 97.6668 27.4219 97.481 24.6576C97.1144 19.3473 96.1503 14.1551 93.6923 9.63316C86.6296 -3.39772 62.9862 0.257954 51.3365 1.16183C35.2302 2.41219 32.1018 15.885 31.8006 29.1393C31.7378 31.9112 29.5685 34.4571 26.8745 35.1149C19.9575 36.8022 13.7133 39.9381 8.91285 45.5622C0.579774 55.3216 1.44597 73.2284 5.95271 84.2732C9.71879 93.5079 18.0368 98.5947 27.2938 99.6718C30.0481 99.9907 32.2701 102.112 32.3981 104.879C32.6216 109.83 33.3421 114.719 35.4562 118.616C43.3499 133.17 64.9822 130.037 78.7611 128.965C94.6388 127.732 97.8626 114.48 98.2241 101.414C98.297 98.6424 100.479 96.1416 103.19 95.5441C110.68 93.892 117.155 90.5954 121.147 84.4138C133.989 64.5512 126.731 33.3599 102.678 29.9704ZM102.334 33.4528C103.921 33.7616 104.069 35.2129 102.721 36.4682C101.373 37.7236 100.095 37.4725 99.8511 35.9083C99.6126 34.3441 100.75 33.1465 102.334 33.4528ZM11.2026 49.7452C11.8579 48.3241 12.5986 46.9607 13.4321 45.6727C15.4407 42.5644 18.3557 40.385 21.8405 38.8685C24.3839 37.7613 24.989 38.8434 23.013 40.7893C19.729 44.0231 16.4274 47.2796 13.1133 50.5511C11.1348 52.4995 10.1305 52.0802 11.2026 49.7452ZM33.548 74.6118C33.1363 74.9633 32.7346 75.3299 32.3454 75.7141C28.4287 79.553 29.0011 86.1287 29.8698 92.0089C30.274 94.7557 28.3408 96.8447 25.6819 96.0538C23.9621 95.5441 22.3678 94.8536 20.899 94.0075C18.4938 92.6241 18.2803 89.576 20.0253 87.7808C21.7728 85.9831 22.762 83.5602 22.3301 82.34C21.8983 81.1222 20.0353 81.6947 18.0694 83.6481C17.8736 83.8439 17.6753 84.0397 17.4794 84.2356C15.5135 86.1915 12.8898 86.435 11.8855 84.6122C10.8838 82.7869 11.868 79.6233 13.8313 77.6624C14.798 76.7008 15.7621 75.7392 16.7287 74.78C18.6971 72.8267 20.2939 71.1645 20.2864 71.0666C20.2764 70.9737 18.6569 72.4601 16.6609 74.3808C15.5813 75.4203 14.5821 76.3844 13.6983 77.2331C11.6997 79.1588 9.70624 79.8016 9.35474 78.6843C9.00324 77.5645 10.3766 75.0587 12.3525 73.1104C13.8941 71.5863 15.4382 70.0673 16.9798 68.5458C18.9557 66.6025 20.7183 63.3812 21.0898 61.3876C21.4614 59.3966 20.3241 59.4242 18.3958 61.4152C16.0759 63.808 13.7535 66.2033 11.4361 68.5985C9.50538 70.5896 7.72779 70.6674 7.63992 68.7592C7.55455 66.8485 9.18652 63.685 11.1198 61.6964C18.0167 54.5885 24.645 47.7742 30.8364 41.4245C32.7722 39.4385 35.1022 37.7061 35.8679 37.2039C36.6337 36.7017 36.8672 35.828 37.0379 35.8029C37.1409 35.7903 37.2438 35.7853 37.3467 35.7803C38.356 35.7351 39.3528 35.7025 40.342 35.6824C41.9966 35.6548 42.6644 36.3779 41.8309 37.239C40.9948 38.1002 42.1623 38.2886 44.4797 37.8693C46.7971 37.4525 48.8433 37.116 49.0241 36.9403C49.2049 36.762 49.3455 36.4582 49.3455 36.2598C49.343 36.064 51.585 36.0289 54.3493 36.2347C60.139 36.6666 65.5045 37.1913 69.6748 37.239C71.5076 37.2616 74.8393 34.5048 71.5578 34.4621C66.2752 34.3994 60.3801 33.9374 54.3066 33.6185C51.5373 33.4729 49.2701 32.5464 49.245 31.4969C49.2224 30.4474 48.414 30.4298 47.4197 31.4568C46.4255 32.4837 44.3039 33.2997 42.682 33.3248C41.0601 33.3499 41.3262 31.8083 43.2695 29.8273C44.088 28.9962 44.9843 28.0823 45.9686 27.078C47.9093 25.0995 49.6417 23.475 49.8376 23.4851C49.9556 23.4901 50.0736 23.4976 50.1966 23.4976C52.76 23.4976 54.8314 21.4237 54.8314 18.8653C54.8314 17.8283 54.4874 16.8742 53.91 16.1059C52.9258 14.8003 51.8637 13.5726 52.401 12.5532C52.9408 11.5363 52.7073 11.5589 51.7307 12.518C50.7565 13.4771 48.2834 14.268 46.9653 15.5686C45.6447 16.8692 43.9926 20.1282 42.0167 22.0715C41.3764 22.6992 40.7362 23.3269 40.096 23.9571C38.1175 25.9004 36.478 25.225 36.6889 22.4582C36.8195 20.8136 37.0279 19.1791 37.3568 17.5772C37.9117 14.8606 40.3546 11.1697 42.3104 9.20382C42.5715 8.9427 42.8302 8.68158 43.0938 8.42046C45.0471 6.45453 48.7554 4.07181 51.4896 3.60481C53.0965 3.33364 54.7711 3.15538 56.4684 3.05244C59.2352 2.88422 60.4378 3.96385 59.1398 5.23932C57.8417 6.51479 58.6376 6.1909 61.2664 5.3046C61.7082 5.15646 62.1652 5.02088 62.6422 4.89283C65.3212 4.18479 67.7892 3.87346 68.0302 3.62992C68.2763 3.38888 68.56 3.19806 68.6705 3.2056C68.7784 3.21062 68.6906 3.39892 68.4746 3.62238C68.2587 3.84584 68.1683 4.01908 68.2713 4.00904C68.3742 4.00151 68.6253 3.82827 68.8286 3.61736C69.032 3.40897 70.192 3.30352 71.4122 3.38637C72.2031 3.44161 72.9487 3.49433 73.6291 3.53702C73.7773 3.54706 73.9078 3.56966 74.0434 3.59225C74.2719 3.62992 74.4326 3.67511 74.405 3.70775C74.3748 3.73788 74.5255 3.75545 74.7389 3.75294C74.9523 3.74541 77.4027 3.92116 80.0114 4.86521C94.6941 10.1755 93.1399 30.2767 92.7282 44.5504C92.5851 49.577 90.8301 53.2301 88.0331 55.9493C86.0446 57.8801 81.922 59.7883 79.2808 60.6218C74.0032 62.2814 68.3516 63.2933 63.049 63.7779C54.7987 64.5286 46.2824 64.3177 39.0013 68.7216C38.0598 69.2915 37.2513 70.0071 36.5559 70.8356C35.3984 72.2241 34.2334 74.0218 33.548 74.6118ZM42.1146 29.8699C43.1339 28.8305 44.1332 27.8111 45.1149 26.8068C47.0532 24.8258 48.7755 23.2792 48.9613 23.3344C49.1446 23.3922 47.7386 25.0342 45.8079 27.0252C44.8588 28.007 43.9524 28.941 43.1038 29.8147C41.1756 31.8083 39.388 33.4277 39.1093 33.4377C38.8331 33.4503 40.1763 31.856 42.1146 29.8699ZM44.1207 71.978C44.8036 71.3579 45.4739 70.7879 45.6346 70.7151C45.73 70.6699 45.8254 70.6297 45.9183 70.582C47.716 69.8313 49.584 69.1835 51.4997 68.6161C52.3709 68.4077 53.2622 68.2295 54.1736 68.0713C55.6599 67.8127 56.7571 67.785 56.6165 67.9181C56.5311 67.9959 56.4458 68.0763 56.3554 68.1617C46.0539 78.3227 49.3229 74.7449 40.8517 83.0329C38.8707 84.9687 37.2789 86.2768 37.289 85.9379C37.2965 85.737 37.3041 85.5337 37.3091 85.3353C37.4472 80.5021 38.7653 77.0121 40.9019 74.4536C42.6795 72.322 44.314 71.6567 43.8068 72.1714C43.2997 72.6836 43.4428 72.5982 44.1207 71.978ZM115.269 85.3956C112.241 88.9458 107.983 91.095 103.087 92.3378C100.403 93.0208 98.1589 93.2342 98.1563 93.1739C98.1563 93.1338 98.1538 93.1036 98.1538 93.0635C98.071 90.628 93.1851 91.4842 93.2554 93.4978C93.2554 93.5455 93.2579 93.5857 93.2604 93.6359C93.263 93.7112 91.0159 93.9046 88.244 93.902C78.1108 93.8845 67.6335 92.3805 60.2671 92.2901C58.0677 92.2625 55.2532 95.5792 58.5347 95.6194C66.4585 95.7148 77.5157 97.1334 88.3545 97.0204C91.1263 96.9928 93.4713 99.0943 93.4688 101.871C93.4663 107.315 92.9943 112.73 90.9154 117.837C86.5744 128.521 68.2311 126.409 58.8511 126.148C57.091 126.095 55.4716 125.924 53.9853 125.643C51.3264 125.141 50.3347 123.18 51.6076 121.882C52.8806 120.579 53.7442 119.183 53.5484 118.751C53.3501 118.317 51.9114 119.138 50.297 120.604C48.6852 122.07 45.376 122.176 43.5131 120.157C41.6476 118.141 42.318 114.546 44.3316 112.637C45.5066 111.525 46.6766 110.413 47.8365 109.318C49.8476 107.41 51.4771 105.798 51.4695 105.713C51.467 105.665 51.4645 105.617 51.4645 105.562C51.4645 105.454 51.462 105.341 51.4595 105.226C51.457 105.04 49.8451 106.463 47.8616 108.404C46.5887 109.647 45.3158 110.89 44.0504 112.13C42.0669 114.069 39.4482 113.612 38.7201 110.933C38.5519 110.317 38.3987 109.69 38.2632 109.055C37.6807 106.343 39.1444 102.562 41.1781 100.679C43.2394 98.7654 45.3057 96.8572 47.367 94.9415C49.4007 93.0534 51.0251 89.8446 51.1381 87.7733C51.2486 85.7044 49.825 85.5613 47.7913 87.4494C45.4614 89.6111 43.1289 91.7804 40.7965 93.9472C38.7628 95.8328 37.0831 95.632 37.1082 93.4978C37.1308 91.3611 38.8256 88.0997 40.8467 86.204C42.9883 84.1979 45.1149 82.2019 47.2214 80.2259C49.245 78.3278 50.5657 77.2582 52.6194 75.3977C53.9376 74.2001 55.7127 72.5856 57.8668 70.6071C59.9106 68.7341 61.7886 67.1925 62.0597 67.1699C62.2204 67.1574 62.3861 67.1423 62.5493 67.1297C63.988 67.0243 65.4116 66.8536 66.8226 66.6351C69.1726 66.2736 70.4054 66.4669 69.5994 67.2126C68.796 67.9633 70.0087 68.3475 72.316 68.1591C74.6234 67.9734 77.3099 67.0896 78.3141 66.1581C79.3134 65.2241 82.3689 64.1695 85.0278 63.3761C87.0665 62.7685 89.0525 61.945 90.938 60.8026C91.6963 60.3431 92.3691 59.7857 92.9692 59.1505C93.9634 58.096 95.2991 56.4991 96.1779 55.7509C96.7051 55.3015 97.2198 54.832 97.7245 54.3374C98.9196 53.1648 99.6879 51.7237 100.157 50.1193C100.926 47.5106 101.174 44.8919 101.649 44.45L102.512 43.6516C103.743 42.4062 104.97 41.1684 106.191 39.9331C108.136 37.9596 111.674 37.5152 113.658 39.4561C124.943 50.4884 125.827 73.025 115.269 85.3956Z" fill="white"/>
<path d="M110.449 57.4387C111.714 56.344 112.706 55.1338 113.321 53.7881C113.349 53.7253 113.369 53.66 113.386 53.5972C113.416 53.4893 111.91 54.8978 110.007 56.7332C108.109 58.5711 108.49 59.1335 110.449 57.4387Z" fill="white"/>
<path d="M96.1956 61.6769C94.2046 63.6077 93.0722 65.0438 93.6598 64.8806C94.2498 64.7225 96.3387 63.0177 98.3247 61.0819C102.036 57.4714 106.231 53.3813 110.713 49.0101C112.696 47.0743 114.298 45.4222 114.288 45.3243C114.278 45.2289 112.673 46.7303 110.695 48.6736C106.128 53.1679 102.058 57.1349 98.1213 60.8835C96.1127 62.7992 96.0876 62.7741 98.0811 60.8433C103.286 55.8017 107.398 51.787 110.687 48.5506C112.661 46.6048 114.243 44.8573 114.225 44.6614C114.21 44.4631 112.57 45.8616 110.574 47.7848C105.761 52.4298 100.968 57.0571 96.1956 61.6769Z" fill="white"/>
<path d="M91.9874 65.3326C92.0226 65.3225 92.3163 65.0313 92.1732 65.1367C92.0276 65.2447 91.9548 65.3376 91.9874 65.3326Z" fill="white"/>
<path d="M79.8183 114.787C82.3767 114.787 84.4506 112.713 84.4506 110.155C84.4506 107.596 82.3767 105.522 79.8183 105.522C77.26 105.522 75.186 107.596 75.186 110.155C75.186 112.713 77.26 114.787 79.8183 114.787Z" fill="white"/>
</g>
<defs>
<clipPath id="clip0">
<rect width="130" height="130" fill="white"/>
</clipPath>
</defs>
</svg>
