 <svg display="none" xmlns="http://www.w3.org/2000/svg">
                       <symbol id="html5" viewBox="0 0 299.215 299.215">
                           <g id="XMLID_106_">
                               <path id="XMLID_107_" d="M22.347,0c-2.75,0-4.799,2.241-4.555,4.98l23.184,260.047c0.244,2.739,2.611,5.582,5.262,6.318
		l98.381,27.316c2.65,0.736,6.986,0.736,9.637,0.002l98.68-27.361c2.65-0.735,5.02-3.578,5.264-6.316L281.422,4.98
		c0.246-2.739-1.805-4.98-4.555-4.98H22.347z M232.049,59.641c-0.219,2.443-0.598,6.684-0.842,9.423l-0.611,6.823
		c-0.246,2.738-0.596,6.654-0.781,8.701c-0.184,2.048-0.359,3.723-0.391,3.723c-0.031,0-2.307,0-5.057,0h-69.76
		c-2.75,0-5.023,0-5.053,0s-2.305,0-5.055,0h-36.74c-2.75,0-4.799,2.241-4.555,4.98l2.143,23.955c0.244,2.738,2.695,4.98,5.445,4.98
		H144.5c2.75,0,5.025,0,5.055,0s2.303,0,5.053,0h57.939c2.75,0,7.006,0,9.457,0c2.449,0,4.273,1.999,4.051,4.442
		c-0.223,2.443-0.604,6.685-0.848,9.423l-6.891,77.228c-0.246,2.739-0.557,6.238-0.691,7.776c-0.137,1.537-2.416,3.396-5.066,4.131
		l-58.133,16.119c-2.65,0.734-4.852,1.342-4.893,1.351c-0.041,0.009-2.242-0.586-4.893-1.321l-58.195-16.148
		c-2.65-0.735-5.018-3.578-5.262-6.317l-3.746-42.045c-0.244-2.739,1.807-4.98,4.557-4.98h5.311c2.75,0,7.25,0,10,0h7.92
		c2.75,0,5.199,2.241,5.445,4.98l1.469,16.459c0.244,2.739,2.615,5.566,5.271,6.283l27.221,7.351
		c2.654,0.717,4.836,1.304,4.848,1.304s2.193-0.588,4.848-1.305l27.27-7.369c2.654-0.717,5.027-3.545,5.273-6.283l2.957-32.976
		c0.246-2.739-1.803-4.98-4.553-4.98h-30.666c-2.75,0-5.023,0-5.053,0s-2.305,0-5.055,0H80.511c-2.75,0-5.199-2.242-5.443-4.98
		l-7.256-81.306c-0.244-2.739-0.623-6.979-0.842-9.423c-0.217-2.443,1.854-4.442,4.604-4.442H144.5c2.75,0,5.025,0,5.055,0
		s2.303,0,5.053,0h72.838C230.195,55.198,232.267,57.197,232.049,59.641z" />
                           </g>
                       </symbol>



					   	<symbol id="php" viewBox="0 0 130 130">
		<path d="M47.8127 109.771C48.203 109.307 48.398 108.629 48.398 107.737C48.398 107.273 48.3377 106.874 48.217 106.539C48.0956 106.205 47.9334 105.927 47.7295 105.704C47.5249 105.481 47.293 105.318 47.033 105.216C46.7727 105.114 46.5127 105.063 46.2527 105.063H42.687V110.467H46.4199C46.9584 110.467 47.4227 110.235 47.8127 109.771Z" fill="white"/>
<path d="M85.1191 4.64282V26.3095H106.786L85.1191 4.64282Z" fill="white"/>
<path d="M75.8334 35.5952V0H18.5715V82.0238H111.429V35.5952H75.8334Z" fill="white"/>
<path d="M18.5715 130H111.429V91.3096H18.5715V130ZM79.068 101.052H87.5087C88.4561 101.052 89.3237 101.247 90.1133 101.637C90.9026 102.027 91.5802 102.538 92.1469 103.169C92.713 103.8 93.159 104.515 93.484 105.314C93.8087 106.113 93.9712 106.92 93.9712 107.737C93.9712 108.61 93.8183 109.446 93.5119 110.244C93.2055 111.043 92.778 111.758 92.2302 112.389C91.6823 113.021 91.0187 113.523 90.2384 113.894C89.4584 114.265 88.5948 114.451 87.6477 114.451H83.6362V120.83H79.0677V101.052H79.068ZM56.8658 101.052H61.4344V108.712H69.3183V101.052H73.8868V120.83H69.3183V112.724H61.4344V120.83H56.8658V101.052ZM38.1183 101.052H46.559C47.5064 101.052 48.374 101.247 49.1636 101.637C49.9529 102.027 50.6305 102.538 51.1972 103.169C51.7633 103.8 52.2093 104.515 52.534 105.314C52.859 106.113 53.0215 106.92 53.0215 107.737C53.0215 108.61 52.8683 109.446 52.5622 110.244C52.2558 111.043 51.8283 111.758 51.2805 112.389C50.7323 113.021 50.0687 113.523 49.2887 113.894C48.5084 114.265 47.6448 114.451 46.698 114.451H42.6865V120.83H38.118V101.052H38.1183Z" fill="white"/>
<path d="M88.7625 109.771C89.1525 109.307 89.3475 108.629 89.3475 107.737C89.3475 107.273 89.2871 106.874 89.1664 106.539C89.0454 106.205 88.8829 105.927 88.6789 105.704C88.4743 105.481 88.2425 105.318 87.9825 105.216C87.7222 105.114 87.4622 105.063 87.2025 105.063H83.6365V110.467H87.3696C87.9079 110.467 88.3722 110.235 88.7625 109.771Z" fill="white"/>
	</symbol>



	<symbol id="wordpress" viewBox="0 0 130 130">
	<path d="M65 0C29.1606 0 0 29.1606 0 65C0 100.839 29.1606 130 65 130C100.839 130 130 100.839 130 65C130 29.1606 100.839 0 65 0ZM65 8.125C76.4806 8.125 87.1569 11.57 96.1025 17.4444C92.9906 19.175 90.1063 22.815 90.1063 30.55C90.1063 34.6613 92.9094 39.4306 96.1512 44.9556C100.043 51.5856 104.869 59.8325 103.659 65.7881C102.326 69.7288 98.9463 78.6744 95.2819 88.2212L78.4875 39.9588C78.8288 39.8694 79.2106 39.8125 79.5356 39.7069C81.6644 39 82.81 36.7006 82.1031 34.5719C81.3881 32.4431 79.0969 31.3137 76.96 32.0044C73.4987 33.1581 67.2344 33.1338 63.4725 33.1256H62.3431H61.2137C57.4762 33.1338 51.1875 33.1581 47.7262 32.0044C45.6219 31.2894 43.3144 32.4431 42.5994 34.5719C41.8844 36.7006 43.0381 39 45.1669 39.7069C46.8812 40.2838 48.9044 40.5925 50.9681 40.82L60.9619 66.8037L51.5125 90.6425L35.3681 40.1375C35.9613 39.9994 36.595 39.8937 37.1394 39.7069C39.2681 39 40.4219 36.7006 39.7069 34.5719C38.9919 32.4431 36.7006 31.2894 34.5719 32.0044C31.1188 33.1581 24.8381 33.1256 21.0763 33.1256H19.9631C19.2319 33.1256 18.6306 33.0688 18.0131 33.02C28.2588 18.005 45.4919 8.125 65 8.125ZM8.125 65C8.125 58.6138 9.23 52.4875 11.18 46.7513L36.1075 113.904C19.3944 103.984 8.125 85.8081 8.125 65ZM65 121.875C59.3775 121.875 53.9581 121.022 48.8231 119.503L65.2681 78L81.2256 119.494C76.0825 121.022 70.6387 121.875 65 121.875ZM94.0794 113.783C99.3444 100.287 108.412 76.9112 111.134 69.0056L111.239 69.0381C111.353 68.7131 111.475 68.2906 111.556 67.795C112.474 65.2438 113.254 62.9119 113.88 60.9456C115.887 54.6 117.162 49.0181 117.829 44.0781C120.412 50.5619 121.875 57.6063 121.875 65C121.875 85.7269 110.695 103.846 94.0794 113.783Z" fill="white"/>
	</symbol>


	<symbol id="css" viewBox="0 0 130 130">
	<path d="M14.5688 91.8966V125.517C14.5688 127.779 17.3033 130 20.0894 130H109.91C112.696 130 115.431 127.779 115.431 125.517V91.8966H14.5688ZM43.6171 113.557C43.913 114.64 44.3209 115.523 44.8432 116.209C45.3654 116.895 45.9571 117.392 46.6206 117.711C47.284 118.029 47.9833 118.186 48.7207 118.186C49.4582 118.186 50.1463 118.051 50.7895 117.787C51.4328 117.522 52.0201 117.092 52.5513 116.5L55.0952 118.737C54.257 119.553 53.3066 120.167 52.2464 120.575C51.1863 120.983 50.0409 121.187 48.8149 121.187C47.4656 121.187 46.2261 120.943 45.092 120.452C43.9578 119.961 42.9671 119.237 42.1199 118.275C41.2726 117.314 40.607 116.11 40.1273 114.66C39.6476 113.21 39.4078 111.533 39.4078 109.635C39.4078 107.736 39.6476 106.064 40.1273 104.625C40.607 103.184 41.2726 101.985 42.1199 101.026C42.9671 100.066 43.9623 99.3357 45.1076 98.8337C46.253 98.3316 47.488 98.0828 48.8149 98.0828C50.0409 98.0828 51.1863 98.2868 52.2464 98.6947C53.3066 99.1026 54.257 99.7168 55.0952 100.533L52.5513 102.801C52.0402 102.207 51.4754 101.779 50.8501 101.514C50.2247 101.25 49.5792 101.115 48.9045 101.115C48.1492 101.115 47.4297 101.257 46.7439 101.544C46.058 101.83 45.4461 102.315 44.9059 102.998C44.3657 103.682 43.9399 104.565 43.6351 105.65C43.3302 106.735 43.1644 108.059 43.1442 109.633C43.1621 111.168 43.3213 112.475 43.6171 113.557ZM72.6363 117.22C72.3001 117.986 71.8249 118.661 71.2108 119.241C70.5966 119.822 69.8435 120.288 68.9425 120.636C68.0414 120.983 67.0239 121.156 65.8785 121.156C65.3876 121.156 64.8833 121.129 64.3611 121.079C63.8389 121.03 63.3144 120.94 62.7832 120.819C62.252 120.698 61.7454 120.528 61.2657 120.313C60.7861 120.098 60.3737 119.838 60.024 119.531L60.6673 116.895C60.9542 117.058 61.3151 117.217 61.7544 117.37C62.1937 117.522 62.6464 117.666 63.1171 117.798C63.5878 117.93 64.0563 118.038 64.527 118.121C64.9976 118.204 65.4347 118.244 65.8449 118.244C67.0911 118.244 68.0459 117.953 68.7094 117.37C69.3728 116.787 69.7045 115.924 69.7045 114.781C69.7045 114.086 69.4714 113.495 69.0007 113.004C68.5301 112.513 67.9428 112.069 67.239 111.67C66.5352 111.271 65.7732 110.874 64.9551 110.475C64.137 110.076 63.3726 109.606 62.6576 109.066C61.9426 108.525 61.3509 107.887 60.8802 107.151C60.4095 106.416 60.1764 105.497 60.1764 104.395C60.1764 103.395 60.3602 102.505 60.7278 101.73C61.0954 100.954 61.5907 100.293 62.2139 99.7526C62.837 99.2125 63.5632 98.7978 64.3902 98.5109C65.2173 98.224 66.0914 98.0828 67.0104 98.0828C67.9495 98.0828 68.8999 98.1702 69.8592 98.3428C70.8185 98.5154 71.594 98.7978 72.188 99.1856C72.0647 99.4501 71.9235 99.7414 71.7599 100.06C71.5963 100.378 71.4416 100.672 71.3004 100.947C71.1592 101.223 71.0359 101.454 70.9328 101.638C70.8297 101.821 70.7692 101.925 70.749 101.945C70.6258 101.884 70.489 101.804 70.3344 101.7C70.1797 101.597 69.9623 101.496 69.6754 101.393C69.3885 101.29 69.012 101.221 68.5413 101.178C68.0706 101.136 67.4676 101.147 66.7325 101.21C66.3223 101.252 65.9368 101.366 65.567 101.561C65.1971 101.756 64.8721 101.994 64.5852 102.281C64.2983 102.568 64.0742 102.888 63.9106 103.247C63.747 103.606 63.6663 103.949 63.6663 104.274C63.6663 105.089 63.8994 105.748 64.3701 106.25C64.8407 106.752 65.4235 107.19 66.1161 107.568C66.8087 107.947 67.5663 108.315 68.3844 108.671C69.2025 109.027 69.9623 109.465 70.6683 109.973C71.3744 110.482 71.9594 111.123 72.4301 111.887C72.9007 112.652 73.1339 113.638 73.1339 114.844C73.1428 115.662 72.9747 116.453 72.6363 117.22ZM89.2449 117.22C88.9087 117.986 88.4335 118.661 87.8194 119.241C87.2052 119.822 86.4521 120.288 85.5511 120.636C84.6501 120.983 83.6325 121.156 82.4871 121.156C81.9963 121.156 81.492 121.129 80.9697 121.079C80.4475 121.03 79.923 120.94 79.3918 120.819C78.8606 120.698 78.354 120.528 77.8744 120.313C77.3947 120.098 76.9823 119.838 76.6326 119.531L77.2759 116.895C77.5628 117.058 77.9237 117.217 78.363 117.37C78.8023 117.522 79.2551 117.666 79.7257 117.798C80.1964 117.93 80.6649 118.038 81.1356 118.121C81.6063 118.204 82.0433 118.244 82.4535 118.244C83.6997 118.244 84.6545 117.953 85.318 117.37C85.9814 116.787 86.3132 115.924 86.3132 114.781C86.3132 114.086 86.0801 113.495 85.6094 113.004C85.1387 112.513 84.5514 112.069 83.8476 111.67C83.1439 111.271 82.3818 110.874 81.5637 110.475C80.7456 110.076 79.9813 109.606 79.2663 109.066C78.5513 108.525 77.9595 107.887 77.4888 107.151C77.0182 106.416 76.7851 105.497 76.7851 104.395C76.7851 103.395 76.9689 102.505 77.3364 101.73C77.704 100.954 78.1994 100.293 78.8225 99.7526C79.4456 99.2125 80.1718 98.7978 80.9989 98.5109C81.8259 98.224 82.7001 98.0828 83.619 98.0828C84.5582 98.0828 85.5085 98.1702 86.4678 98.3428C87.4271 98.5154 88.2027 98.7978 88.7966 99.1856C88.6733 99.4501 88.5321 99.7414 88.3685 100.06C88.2049 100.378 88.0502 100.672 87.909 100.947C87.7678 101.223 87.6445 101.454 87.5414 101.638C87.4383 101.821 87.3778 101.925 87.3576 101.945C87.2344 101.884 87.0976 101.804 86.943 101.7C86.7883 101.597 86.5709 101.496 86.284 101.393C85.9971 101.29 85.6206 101.221 85.1499 101.178C84.6792 101.136 84.0763 101.147 83.3411 101.21C82.9309 101.252 82.5454 101.366 82.1756 101.561C81.8057 101.756 81.4807 101.994 81.1938 102.281C80.907 102.568 80.6828 102.888 80.5192 103.247C80.3556 103.606 80.2749 103.949 80.2749 104.274C80.2749 105.089 80.508 105.748 80.9787 106.25C81.4494 106.752 82.0321 107.19 82.7247 107.568C83.4173 107.947 84.1749 108.315 84.993 108.671C85.8111 109.027 86.5709 109.465 87.277 109.973C87.983 110.482 88.568 111.123 89.0387 111.887C89.5094 112.652 89.7425 113.638 89.7425 114.844C89.7514 115.662 89.5833 116.453 89.2449 117.22Z" fill="white"/>
<path d="M115.431 87.4138V31.33C115.431 29.6131 115.225 28.3422 114.198 27.3134L88.1152 1.23276C87.333 0.450517 86.2482 0 85.1387 0H20.0894C17.4311 0 14.5688 2.0531 14.5688 6.55828V87.4138H115.431ZM84.0516 7.60052C84.0516 6.57397 85.2911 6.06069 86.0173 6.7869L108.644 29.4136C109.37 30.1398 108.857 31.3793 107.83 31.3793H84.0516V7.60052ZM81.8102 51.5517V42.5862C81.8102 41.3512 80.8061 40.3448 79.5689 40.3448C78.3294 40.3448 77.3275 39.3407 77.3275 38.1034C77.3275 36.8662 78.3294 35.8621 79.5689 35.8621C83.2761 35.8621 86.293 38.879 86.293 42.5862V51.5517C86.293 54.024 88.3035 56.0345 90.7757 56.0345C92.0152 56.0345 93.0171 57.0386 93.0171 58.2759C93.0171 59.5131 92.0152 60.5172 90.7757 60.5172C88.3035 60.5172 86.293 62.5278 86.293 65V73.9655C86.293 77.6728 83.2761 80.6897 79.5689 80.6897C78.3294 80.6897 77.3275 79.6855 77.3275 78.4483C77.3275 77.211 78.3294 76.2069 79.5689 76.2069C80.8061 76.2069 81.8102 75.2005 81.8102 73.9655V65C81.8102 62.3103 83.0251 59.921 84.9078 58.2759C83.0251 56.6307 81.8102 54.2414 81.8102 51.5517ZM36.9826 56.0345C39.4549 56.0345 41.4654 54.024 41.4654 51.5517V42.5862C41.4654 38.879 44.4823 35.8621 48.1895 35.8621C49.429 35.8621 50.4309 36.8662 50.4309 38.1034C50.4309 39.3407 49.429 40.3448 48.1895 40.3448C46.9523 40.3448 45.9482 41.3512 45.9482 42.5862V51.5517C45.9482 54.2414 44.7333 56.6307 42.8506 58.2759C44.7333 59.921 45.9482 62.3103 45.9482 65V73.9655C45.9482 75.2005 46.9523 76.2069 48.1895 76.2069C49.429 76.2069 50.4309 77.211 50.4309 78.4483C50.4309 79.6855 49.429 80.6897 48.1895 80.6897C44.4823 80.6897 41.4654 77.6728 41.4654 73.9655V65C41.4654 62.5278 39.4549 60.5172 36.9826 60.5172C35.7432 60.5172 34.7413 59.5131 34.7413 58.2759C34.7413 57.0386 35.7432 56.0345 36.9826 56.0345Z" fill="white"/>
	</symbol>

	<symbol id="pyton" viewBox="0 0 130 130">
	<path d="M102.678 29.9704C99.9314 29.5837 97.6668 27.4219 97.481 24.6576C97.1144 19.3473 96.1503 14.1551 93.6923 9.63316C86.6296 -3.39772 62.9862 0.257954 51.3365 1.16183C35.2302 2.41219 32.1018 15.885 31.8006 29.1393C31.7378 31.9112 29.5685 34.4571 26.8745 35.1149C19.9575 36.8022 13.7133 39.9381 8.91285 45.5622C0.579774 55.3216 1.44597 73.2284 5.95271 84.2732C9.71879 93.5079 18.0368 98.5947 27.2938 99.6718C30.0481 99.9907 32.2701 102.112 32.3981 104.879C32.6216 109.83 33.3421 114.719 35.4562 118.616C43.3499 133.17 64.9822 130.037 78.7611 128.965C94.6388 127.732 97.8626 114.48 98.2241 101.414C98.297 98.6424 100.479 96.1416 103.19 95.5441C110.68 93.892 117.155 90.5954 121.147 84.4138C133.989 64.5512 126.731 33.3599 102.678 29.9704ZM102.334 33.4528C103.921 33.7616 104.069 35.2129 102.721 36.4682C101.373 37.7236 100.095 37.4725 99.8511 35.9083C99.6126 34.3441 100.75 33.1465 102.334 33.4528ZM11.2026 49.7452C11.8579 48.3241 12.5986 46.9607 13.4321 45.6727C15.4407 42.5644 18.3557 40.385 21.8405 38.8685C24.3839 37.7613 24.989 38.8434 23.013 40.7893C19.729 44.0231 16.4274 47.2796 13.1133 50.5511C11.1348 52.4995 10.1305 52.0802 11.2026 49.7452ZM33.548 74.6118C33.1363 74.9633 32.7346 75.3299 32.3454 75.7141C28.4287 79.553 29.0011 86.1287 29.8698 92.0089C30.274 94.7557 28.3408 96.8447 25.6819 96.0538C23.9621 95.5441 22.3678 94.8536 20.899 94.0075C18.4938 92.6241 18.2803 89.576 20.0253 87.7808C21.7728 85.9831 22.762 83.5602 22.3301 82.34C21.8983 81.1222 20.0353 81.6947 18.0694 83.6481C17.8736 83.8439 17.6753 84.0397 17.4794 84.2356C15.5135 86.1915 12.8898 86.435 11.8855 84.6122C10.8838 82.7869 11.868 79.6233 13.8313 77.6624C14.798 76.7008 15.7621 75.7392 16.7287 74.78C18.6971 72.8267 20.2939 71.1645 20.2864 71.0666C20.2764 70.9737 18.6569 72.4601 16.6609 74.3808C15.5813 75.4203 14.5821 76.3844 13.6983 77.2331C11.6997 79.1588 9.70624 79.8016 9.35474 78.6843C9.00324 77.5645 10.3766 75.0587 12.3525 73.1104C13.8941 71.5863 15.4382 70.0673 16.9798 68.5458C18.9557 66.6025 20.7183 63.3812 21.0898 61.3876C21.4614 59.3966 20.3241 59.4242 18.3958 61.4152C16.0759 63.808 13.7535 66.2033 11.4361 68.5985C9.50538 70.5896 7.72779 70.6674 7.63992 68.7592C7.55455 66.8485 9.18652 63.685 11.1198 61.6964C18.0167 54.5885 24.645 47.7742 30.8364 41.4245C32.7722 39.4385 35.1022 37.7061 35.8679 37.2039C36.6337 36.7017 36.8672 35.828 37.0379 35.8029C37.1409 35.7903 37.2438 35.7853 37.3467 35.7803C38.356 35.7351 39.3528 35.7025 40.342 35.6824C41.9966 35.6548 42.6644 36.3779 41.8309 37.239C40.9948 38.1002 42.1623 38.2886 44.4797 37.8693C46.7971 37.4525 48.8433 37.116 49.0241 36.9403C49.2049 36.762 49.3455 36.4582 49.3455 36.2598C49.343 36.064 51.585 36.0289 54.3493 36.2347C60.139 36.6666 65.5045 37.1913 69.6748 37.239C71.5076 37.2616 74.8393 34.5048 71.5578 34.4621C66.2752 34.3994 60.3801 33.9374 54.3066 33.6185C51.5373 33.4729 49.2701 32.5464 49.245 31.4969C49.2224 30.4474 48.414 30.4298 47.4197 31.4568C46.4255 32.4837 44.3039 33.2997 42.682 33.3248C41.0601 33.3499 41.3262 31.8083 43.2695 29.8273C44.088 28.9962 44.9843 28.0823 45.9686 27.078C47.9093 25.0995 49.6417 23.475 49.8376 23.4851C49.9556 23.4901 50.0736 23.4976 50.1966 23.4976C52.76 23.4976 54.8314 21.4237 54.8314 18.8653C54.8314 17.8283 54.4874 16.8742 53.91 16.1059C52.9258 14.8003 51.8637 13.5726 52.401 12.5532C52.9408 11.5363 52.7073 11.5589 51.7307 12.518C50.7565 13.4771 48.2834 14.268 46.9653 15.5686C45.6447 16.8692 43.9926 20.1282 42.0167 22.0715C41.3764 22.6992 40.7362 23.3269 40.096 23.9571C38.1175 25.9004 36.478 25.225 36.6889 22.4582C36.8195 20.8136 37.0279 19.1791 37.3568 17.5772C37.9117 14.8606 40.3546 11.1697 42.3104 9.20382C42.5715 8.9427 42.8302 8.68158 43.0938 8.42046C45.0471 6.45453 48.7554 4.07181 51.4896 3.60481C53.0965 3.33364 54.7711 3.15538 56.4684 3.05244C59.2352 2.88422 60.4378 3.96385 59.1398 5.23932C57.8417 6.51479 58.6376 6.1909 61.2664 5.3046C61.7082 5.15646 62.1652 5.02088 62.6422 4.89283C65.3212 4.18479 67.7892 3.87346 68.0302 3.62992C68.2763 3.38888 68.56 3.19806 68.6705 3.2056C68.7784 3.21062 68.6906 3.39892 68.4746 3.62238C68.2587 3.84584 68.1683 4.01908 68.2713 4.00904C68.3742 4.00151 68.6253 3.82827 68.8286 3.61736C69.032 3.40897 70.192 3.30352 71.4122 3.38637C72.2031 3.44161 72.9487 3.49433 73.6291 3.53702C73.7773 3.54706 73.9078 3.56966 74.0434 3.59225C74.2719 3.62992 74.4326 3.67511 74.405 3.70775C74.3748 3.73788 74.5255 3.75545 74.7389 3.75294C74.9523 3.74541 77.4027 3.92116 80.0114 4.86521C94.6941 10.1755 93.1399 30.2767 92.7282 44.5504C92.5851 49.577 90.8301 53.2301 88.0331 55.9493C86.0446 57.8801 81.922 59.7883 79.2808 60.6218C74.0032 62.2814 68.3516 63.2933 63.049 63.7779C54.7987 64.5286 46.2824 64.3177 39.0013 68.7216C38.0598 69.2915 37.2513 70.0071 36.5559 70.8356C35.3984 72.2241 34.2334 74.0218 33.548 74.6118ZM42.1146 29.8699C43.1339 28.8305 44.1332 27.8111 45.1149 26.8068C47.0532 24.8258 48.7755 23.2792 48.9613 23.3344C49.1446 23.3922 47.7386 25.0342 45.8079 27.0252C44.8588 28.007 43.9524 28.941 43.1038 29.8147C41.1756 31.8083 39.388 33.4277 39.1093 33.4377C38.8331 33.4503 40.1763 31.856 42.1146 29.8699ZM44.1207 71.978C44.8036 71.3579 45.4739 70.7879 45.6346 70.7151C45.73 70.6699 45.8254 70.6297 45.9183 70.582C47.716 69.8313 49.584 69.1835 51.4997 68.6161C52.3709 68.4077 53.2622 68.2295 54.1736 68.0713C55.6599 67.8127 56.7571 67.785 56.6165 67.9181C56.5311 67.9959 56.4458 68.0763 56.3554 68.1617C46.0539 78.3227 49.3229 74.7449 40.8517 83.0329C38.8707 84.9687 37.2789 86.2768 37.289 85.9379C37.2965 85.737 37.3041 85.5337 37.3091 85.3353C37.4472 80.5021 38.7653 77.0121 40.9019 74.4536C42.6795 72.322 44.314 71.6567 43.8068 72.1714C43.2997 72.6836 43.4428 72.5982 44.1207 71.978ZM115.269 85.3956C112.241 88.9458 107.983 91.095 103.087 92.3378C100.403 93.0208 98.1589 93.2342 98.1563 93.1739C98.1563 93.1338 98.1538 93.1036 98.1538 93.0635C98.071 90.628 93.1851 91.4842 93.2554 93.4978C93.2554 93.5455 93.2579 93.5857 93.2604 93.6359C93.263 93.7112 91.0159 93.9046 88.244 93.902C78.1108 93.8845 67.6335 92.3805 60.2671 92.2901C58.0677 92.2625 55.2532 95.5792 58.5347 95.6194C66.4585 95.7148 77.5157 97.1334 88.3545 97.0204C91.1263 96.9928 93.4713 99.0943 93.4688 101.871C93.4663 107.315 92.9943 112.73 90.9154 117.837C86.5744 128.521 68.2311 126.409 58.8511 126.148C57.091 126.095 55.4716 125.924 53.9853 125.643C51.3264 125.141 50.3347 123.18 51.6076 121.882C52.8806 120.579 53.7442 119.183 53.5484 118.751C53.3501 118.317 51.9114 119.138 50.297 120.604C48.6852 122.07 45.376 122.176 43.5131 120.157C41.6476 118.141 42.318 114.546 44.3316 112.637C45.5066 111.525 46.6766 110.413 47.8365 109.318C49.8476 107.41 51.4771 105.798 51.4695 105.713C51.467 105.665 51.4645 105.617 51.4645 105.562C51.4645 105.454 51.462 105.341 51.4595 105.226C51.457 105.04 49.8451 106.463 47.8616 108.404C46.5887 109.647 45.3158 110.89 44.0504 112.13C42.0669 114.069 39.4482 113.612 38.7201 110.933C38.5519 110.317 38.3987 109.69 38.2632 109.055C37.6807 106.343 39.1444 102.562 41.1781 100.679C43.2394 98.7654 45.3057 96.8572 47.367 94.9415C49.4007 93.0534 51.0251 89.8446 51.1381 87.7733C51.2486 85.7044 49.825 85.5613 47.7913 87.4494C45.4614 89.6111 43.1289 91.7804 40.7965 93.9472C38.7628 95.8328 37.0831 95.632 37.1082 93.4978C37.1308 91.3611 38.8256 88.0997 40.8467 86.204C42.9883 84.1979 45.1149 82.2019 47.2214 80.2259C49.245 78.3278 50.5657 77.2582 52.6194 75.3977C53.9376 74.2001 55.7127 72.5856 57.8668 70.6071C59.9106 68.7341 61.7886 67.1925 62.0597 67.1699C62.2204 67.1574 62.3861 67.1423 62.5493 67.1297C63.988 67.0243 65.4116 66.8536 66.8226 66.6351C69.1726 66.2736 70.4054 66.4669 69.5994 67.2126C68.796 67.9633 70.0087 68.3475 72.316 68.1591C74.6234 67.9734 77.3099 67.0896 78.3141 66.1581C79.3134 65.2241 82.3689 64.1695 85.0278 63.3761C87.0665 62.7685 89.0525 61.945 90.938 60.8026C91.6963 60.3431 92.3691 59.7857 92.9692 59.1505C93.9634 58.096 95.2991 56.4991 96.1779 55.7509C96.7051 55.3015 97.2198 54.832 97.7245 54.3374C98.9196 53.1648 99.6879 51.7237 100.157 50.1193C100.926 47.5106 101.174 44.8919 101.649 44.45L102.512 43.6516C103.743 42.4062 104.97 41.1684 106.191 39.9331C108.136 37.9596 111.674 37.5152 113.658 39.4561C124.943 50.4884 125.827 73.025 115.269 85.3956Z" fill="white"/>
<path d="M110.449 57.4387C111.714 56.344 112.706 55.1338 113.321 53.7881C113.349 53.7253 113.369 53.66 113.386 53.5972C113.416 53.4893 111.91 54.8978 110.007 56.7332C108.109 58.5711 108.49 59.1335 110.449 57.4387Z" fill="white"/>
<path d="M96.1956 61.6769C94.2046 63.6077 93.0722 65.0438 93.6598 64.8806C94.2498 64.7225 96.3387 63.0177 98.3247 61.0819C102.036 57.4714 106.231 53.3813 110.713 49.0101C112.696 47.0743 114.298 45.4222 114.288 45.3243C114.278 45.2289 112.673 46.7303 110.695 48.6736C106.128 53.1679 102.058 57.1349 98.1213 60.8835C96.1127 62.7992 96.0876 62.7741 98.0811 60.8433C103.286 55.8017 107.398 51.787 110.687 48.5506C112.661 46.6048 114.243 44.8573 114.225 44.6614C114.21 44.4631 112.57 45.8616 110.574 47.7848C105.761 52.4298 100.968 57.0571 96.1956 61.6769Z" fill="white"/>
<path d="M91.9874 65.3326C92.0226 65.3225 92.3163 65.0313 92.1732 65.1367C92.0276 65.2447 91.9548 65.3376 91.9874 65.3326Z" fill="white"/>
<path d="M79.8183 114.787C82.3767 114.787 84.4506 112.713 84.4506 110.155C84.4506 107.596 82.3767 105.522 79.8183 105.522C77.26 105.522 75.186 107.596 75.186 110.155C75.186 112.713 77.26 114.787 79.8183 114.787Z" fill="white"/>
	</symbol>

	<symbol id="js" viewBox="0 0 130 135">
	<path d="M14.5691 95.431V130.345C14.5691 132.693 17.3036 135 20.0896 135H109.911C112.697 135 115.431 132.693 115.431 130.345V95.431H14.5691ZM60.5644 120.024C60.5644 121.128 60.3694 122.056 59.9817 122.808C59.5917 123.56 59.0717 124.165 58.4194 124.621C57.7649 125.077 57.0141 125.396 56.1669 125.576C55.3196 125.755 54.4432 125.846 53.5467 125.846C53.0962 125.846 52.5694 125.797 51.9687 125.701C51.3681 125.606 50.7427 125.459 50.0994 125.257C49.4562 125.054 48.8375 124.826 48.2458 124.572C47.6518 124.319 47.152 124.032 46.7441 123.714L48.3063 121.137C48.5103 121.284 48.8017 121.439 49.1805 121.598C49.5593 121.756 49.9717 121.905 50.4222 122.042C50.8705 122.182 51.3412 122.301 51.832 122.408C52.3229 122.515 52.7824 122.566 53.2105 122.566C54.2908 122.566 55.156 122.347 55.7993 121.914C56.4425 121.481 56.7832 120.741 56.8258 119.703V101.755H60.5644V120.024ZM78.3543 121.728C78.0181 122.524 77.5429 123.225 76.9287 123.828C76.3146 124.43 75.5593 124.915 74.6605 125.275C73.7617 125.636 72.7396 125.815 71.5965 125.815C71.1056 125.815 70.6013 125.787 70.0791 125.736C69.5569 125.685 69.0301 125.592 68.5012 125.466C67.97 125.338 67.4634 125.164 66.9837 124.94C66.5041 124.717 66.0894 124.447 65.742 124.128L66.3853 121.391C66.67 121.561 67.0331 121.726 67.4724 121.884C67.9117 122.042 68.3644 122.191 68.8351 122.329C69.3036 122.468 69.7743 122.578 70.245 122.664C70.7134 122.748 71.1527 122.792 71.5629 122.792C72.8091 122.792 73.7639 122.489 74.4274 121.884C75.0908 121.279 75.4225 120.383 75.4225 119.196C75.4225 118.474 75.1872 117.86 74.7187 117.35C74.2481 116.84 73.6608 116.379 72.957 115.965C72.2532 115.551 71.4912 115.139 70.6731 114.724C69.855 114.31 69.0884 113.821 68.3756 113.26C67.6606 112.699 67.0667 112.036 66.5982 111.273C66.1275 110.509 65.8944 109.555 65.8944 108.41C65.8944 107.372 66.0782 106.447 66.4458 105.642C66.8134 104.837 67.3087 104.15 67.9319 103.589C68.555 103.028 69.2812 102.598 70.1082 102.3C70.9353 102.002 71.8094 101.855 72.7284 101.855C73.6675 101.855 74.6179 101.946 75.5772 102.125C76.5365 102.304 77.312 102.598 77.906 103C77.7827 103.275 77.6393 103.578 77.4779 103.908C77.3143 104.239 77.1596 104.544 77.0184 104.83C76.875 105.116 76.7517 105.356 76.6508 105.547C76.5477 105.738 76.4872 105.845 76.467 105.866C76.3438 105.803 76.207 105.719 76.0524 105.612C75.8977 105.505 75.6781 105.4 75.3934 105.293C75.1065 105.186 74.7277 105.114 74.2593 105.07C73.7886 105.025 73.1856 105.037 72.4505 105.102C72.0403 105.146 71.6548 105.265 71.285 105.468C70.9151 105.67 70.5879 105.917 70.3032 106.215C70.0163 106.513 69.79 106.846 69.6286 107.218C69.465 107.588 69.3843 107.946 69.3843 108.284C69.3843 109.131 69.6174 109.816 70.0881 110.337C70.5565 110.858 71.1393 111.312 71.8341 111.706C72.5289 112.099 73.282 112.481 74.1024 112.851C74.9182 113.221 75.6803 113.675 76.3863 114.203C77.0924 114.731 77.6774 115.397 78.1481 116.191C78.6165 116.987 78.8519 118.009 78.8519 119.261C78.8608 120.11 78.6905 120.932 78.3543 121.728Z" fill="white"/>
<path d="M115.431 90.7758V32.535C115.431 30.7521 115.225 29.4323 114.198 28.364L88.1155 1.28017C87.3332 0.467845 86.2484 0 85.1389 0H20.0896C17.4313 0 14.5691 2.13207 14.5691 6.81052V90.7758H115.431ZM66.1208 74.4827C66.1208 75.7676 65.1189 76.8103 63.8794 76.8103C62.64 76.8103 61.6381 75.7676 61.6381 74.4827V67.5C61.6381 66.2152 62.64 65.1724 63.8794 65.1724C65.1189 65.1724 66.1208 66.2152 66.1208 67.5V74.4827ZM84.0518 7.89284C84.0518 6.82681 85.2913 6.29379 86.0175 7.04793L108.644 30.5449C109.37 31.299 108.857 32.5862 107.831 32.5862H84.0518V7.89284ZM81.8105 53.5345V44.2241C81.8105 42.9416 80.8063 41.8965 79.5691 41.8965C78.3296 41.8965 77.3277 40.8538 77.3277 39.569C77.3277 38.2841 78.3296 37.2414 79.5691 37.2414C83.2763 37.2414 86.2932 40.3743 86.2932 44.2241V53.5345C86.2932 56.1018 88.3037 58.1896 90.776 58.1896C92.0155 58.1896 93.0174 59.2324 93.0174 60.5172C93.0174 61.8021 92.0155 62.8448 90.776 62.8448C88.3037 62.8448 86.2932 64.9327 86.2932 67.5V76.8103C86.2932 80.6602 83.2763 83.7931 79.5691 83.7931C78.3296 83.7931 77.3277 82.7503 77.3277 81.4655C77.3277 80.1807 78.3296 79.1379 79.5691 79.1379C80.8063 79.1379 81.8105 78.0928 81.8105 76.8103V67.5C81.8105 64.7069 83.0253 62.2257 84.9081 60.5172C83.0253 58.8088 81.8105 56.3276 81.8105 53.5345ZM63.8794 48.8793C65.7353 48.8793 67.2415 50.4434 67.2415 52.3707C67.2415 54.2979 65.7353 55.8621 63.8794 55.8621C62.0236 55.8621 60.5174 54.2979 60.5174 52.3707C60.5174 50.4434 62.0236 48.8793 63.8794 48.8793ZM36.9829 58.1896C39.4551 58.1896 41.4656 56.1018 41.4656 53.5345V44.2241C41.4656 40.3743 44.4825 37.2414 48.1898 37.2414C49.4293 37.2414 50.4312 38.2841 50.4312 39.569C50.4312 40.8538 49.4293 41.8965 48.1898 41.8965C46.9525 41.8965 45.9484 42.9416 45.9484 44.2241V53.5345C45.9484 56.3276 44.7336 58.8088 42.8508 60.5172C44.7336 62.2257 45.9484 64.7069 45.9484 67.5V76.8103C45.9484 78.0928 46.9525 79.1379 48.1898 79.1379C49.4293 79.1379 50.4312 80.1807 50.4312 81.4655C50.4312 82.7503 49.4293 83.7931 48.1898 83.7931C44.4825 83.7931 41.4656 80.6602 41.4656 76.8103V67.5C41.4656 64.9327 39.4551 62.8448 36.9829 62.8448C35.7434 62.8448 34.7415 61.8021 34.7415 60.5172C34.7415 59.2324 35.7434 58.1896 36.9829 58.1896Z" fill="white"/>
	</symbol>

                   </svg> 

