<svg width="130" height="130" viewBox="0 0 130 130" fill="none" xmlns="http://www.w3.org/2000/svg">
<path d="M14.5688 91.8966V125.517C14.5688 127.779 17.3033 130 20.0894 130H109.91C112.696 130 115.431 127.779 115.431 125.517V91.8966H14.5688ZM43.6171 113.557C43.913 114.64 44.3209 115.523 44.8432 116.209C45.3654 116.895 45.9571 117.392 46.6206 117.711C47.284 118.029 47.9833 118.186 48.7207 118.186C49.4582 118.186 50.1463 118.051 50.7895 117.787C51.4328 117.522 52.0201 117.092 52.5513 116.5L55.0952 118.737C54.257 119.553 53.3066 120.167 52.2464 120.575C51.1863 120.983 50.0409 121.187 48.8149 121.187C47.4656 121.187 46.2261 120.943 45.092 120.452C43.9578 119.961 42.9671 119.237 42.1199 118.275C41.2726 117.314 40.607 116.11 40.1273 114.66C39.6476 113.21 39.4078 111.533 39.4078 109.635C39.4078 107.736 39.6476 106.064 40.1273 104.625C40.607 103.184 41.2726 101.985 42.1199 101.026C42.9671 100.066 43.9623 99.3357 45.1076 98.8337C46.253 98.3316 47.488 98.0828 48.8149 98.0828C50.0409 98.0828 51.1863 98.2868 52.2464 98.6947C53.3066 99.1026 54.257 99.7168 55.0952 100.533L52.5513 102.801C52.0402 102.207 51.4754 101.779 50.8501 101.514C50.2247 101.25 49.5792 101.115 48.9045 101.115C48.1492 101.115 47.4297 101.257 46.7439 101.544C46.058 101.83 45.4461 102.315 44.9059 102.998C44.3657 103.682 43.9399 104.565 43.6351 105.65C43.3302 106.735 43.1644 108.059 43.1442 109.633C43.1621 111.168 43.3213 112.475 43.6171 113.557ZM72.6363 117.22C72.3001 117.986 71.8249 118.661 71.2108 119.241C70.5966 119.822 69.8435 120.288 68.9425 120.636C68.0414 120.983 67.0239 121.156 65.8785 121.156C65.3876 121.156 64.8833 121.129 64.3611 121.079C63.8389 121.03 63.3144 120.94 62.7832 120.819C62.252 120.698 61.7454 120.528 61.2657 120.313C60.7861 120.098 60.3737 119.838 60.024 119.531L60.6673 116.895C60.9542 117.058 61.3151 117.217 61.7544 117.37C62.1937 117.522 62.6464 117.666 63.1171 117.798C63.5878 117.93 64.0563 118.038 64.527 118.121C64.9976 118.204 65.4347 118.244 65.8449 118.244C67.0911 118.244 68.0459 117.953 68.7094 117.37C69.3728 116.787 69.7045 115.924 69.7045 114.781C69.7045 114.086 69.4714 113.495 69.0007 113.004C68.5301 112.513 67.9428 112.069 67.239 111.67C66.5352 111.271 65.7732 110.874 64.9551 110.475C64.137 110.076 63.3726 109.606 62.6576 109.066C61.9426 108.525 61.3509 107.887 60.8802 107.151C60.4095 106.416 60.1764 105.497 60.1764 104.395C60.1764 103.395 60.3602 102.505 60.7278 101.73C61.0954 100.954 61.5907 100.293 62.2139 99.7526C62.837 99.2125 63.5632 98.7978 64.3902 98.5109C65.2173 98.224 66.0914 98.0828 67.0104 98.0828C67.9495 98.0828 68.8999 98.1702 69.8592 98.3428C70.8185 98.5154 71.594 98.7978 72.188 99.1856C72.0647 99.4501 71.9235 99.7414 71.7599 100.06C71.5963 100.378 71.4416 100.672 71.3004 100.947C71.1592 101.223 71.0359 101.454 70.9328 101.638C70.8297 101.821 70.7692 101.925 70.749 101.945C70.6258 101.884 70.489 101.804 70.3344 101.7C70.1797 101.597 69.9623 101.496 69.6754 101.393C69.3885 101.29 69.012 101.221 68.5413 101.178C68.0706 101.136 67.4676 101.147 66.7325 101.21C66.3223 101.252 65.9368 101.366 65.567 101.561C65.1971 101.756 64.8721 101.994 64.5852 102.281C64.2983 102.568 64.0742 102.888 63.9106 103.247C63.747 103.606 63.6663 103.949 63.6663 104.274C63.6663 105.089 63.8994 105.748 64.3701 106.25C64.8407 106.752 65.4235 107.19 66.1161 107.568C66.8087 107.947 67.5663 108.315 68.3844 108.671C69.2025 109.027 69.9623 109.465 70.6683 109.973C71.3744 110.482 71.9594 111.123 72.4301 111.887C72.9007 112.652 73.1339 113.638 73.1339 114.844C73.1428 115.662 72.9747 116.453 72.6363 117.22ZM89.2449 117.22C88.9087 117.986 88.4335 118.661 87.8194 119.241C87.2052 119.822 86.4521 120.288 85.5511 120.636C84.6501 120.983 83.6325 121.156 82.4871 121.156C81.9963 121.156 81.492 121.129 80.9697 121.079C80.4475 121.03 79.923 120.94 79.3918 120.819C78.8606 120.698 78.354 120.528 77.8744 120.313C77.3947 120.098 76.9823 119.838 76.6326 119.531L77.2759 116.895C77.5628 117.058 77.9237 117.217 78.363 117.37C78.8023 117.522 79.2551 117.666 79.7257 117.798C80.1964 117.93 80.6649 118.038 81.1356 118.121C81.6063 118.204 82.0433 118.244 82.4535 118.244C83.6997 118.244 84.6545 117.953 85.318 117.37C85.9814 116.787 86.3132 115.924 86.3132 114.781C86.3132 114.086 86.0801 113.495 85.6094 113.004C85.1387 112.513 84.5514 112.069 83.8476 111.67C83.1439 111.271 82.3818 110.874 81.5637 110.475C80.7456 110.076 79.9813 109.606 79.2663 109.066C78.5513 108.525 77.9595 107.887 77.4888 107.151C77.0182 106.416 76.7851 105.497 76.7851 104.395C76.7851 103.395 76.9689 102.505 77.3364 101.73C77.704 100.954 78.1994 100.293 78.8225 99.7526C79.4456 99.2125 80.1718 98.7978 80.9989 98.5109C81.8259 98.224 82.7001 98.0828 83.619 98.0828C84.5582 98.0828 85.5085 98.1702 86.4678 98.3428C87.4271 98.5154 88.2027 98.7978 88.7966 99.1856C88.6733 99.4501 88.5321 99.7414 88.3685 100.06C88.2049 100.378 88.0502 100.672 87.909 100.947C87.7678 101.223 87.6445 101.454 87.5414 101.638C87.4383 101.821 87.3778 101.925 87.3576 101.945C87.2344 101.884 87.0976 101.804 86.943 101.7C86.7883 101.597 86.5709 101.496 86.284 101.393C85.9971 101.29 85.6206 101.221 85.1499 101.178C84.6792 101.136 84.0763 101.147 83.3411 101.21C82.9309 101.252 82.5454 101.366 82.1756 101.561C81.8057 101.756 81.4807 101.994 81.1938 102.281C80.907 102.568 80.6828 102.888 80.5192 103.247C80.3556 103.606 80.2749 103.949 80.2749 104.274C80.2749 105.089 80.508 105.748 80.9787 106.25C81.4494 106.752 82.0321 107.19 82.7247 107.568C83.4173 107.947 84.1749 108.315 84.993 108.671C85.8111 109.027 86.5709 109.465 87.277 109.973C87.983 110.482 88.568 111.123 89.0387 111.887C89.5094 112.652 89.7425 113.638 89.7425 114.844C89.7514 115.662 89.5833 116.453 89.2449 117.22Z" fill="white"/>
<path d="M115.431 87.4138V31.33C115.431 29.6131 115.225 28.3422 114.198 27.3134L88.1152 1.23276C87.333 0.450517 86.2482 0 85.1387 0H20.0894C17.4311 0 14.5688 2.0531 14.5688 6.55828V87.4138H115.431ZM84.0516 7.60052C84.0516 6.57397 85.2911 6.06069 86.0173 6.7869L108.644 29.4136C109.37 30.1398 108.857 31.3793 107.83 31.3793H84.0516V7.60052ZM81.8102 51.5517V42.5862C81.8102 41.3512 80.8061 40.3448 79.5689 40.3448C78.3294 40.3448 77.3275 39.3407 77.3275 38.1034C77.3275 36.8662 78.3294 35.8621 79.5689 35.8621C83.2761 35.8621 86.293 38.879 86.293 42.5862V51.5517C86.293 54.024 88.3035 56.0345 90.7757 56.0345C92.0152 56.0345 93.0171 57.0386 93.0171 58.2759C93.0171 59.5131 92.0152 60.5172 90.7757 60.5172C88.3035 60.5172 86.293 62.5278 86.293 65V73.9655C86.293 77.6728 83.2761 80.6897 79.5689 80.6897C78.3294 80.6897 77.3275 79.6855 77.3275 78.4483C77.3275 77.211 78.3294 76.2069 79.5689 76.2069C80.8061 76.2069 81.8102 75.2005 81.8102 73.9655V65C81.8102 62.3103 83.0251 59.921 84.9078 58.2759C83.0251 56.6307 81.8102 54.2414 81.8102 51.5517ZM36.9826 56.0345C39.4549 56.0345 41.4654 54.024 41.4654 51.5517V42.5862C41.4654 38.879 44.4823 35.8621 48.1895 35.8621C49.429 35.8621 50.4309 36.8662 50.4309 38.1034C50.4309 39.3407 49.429 40.3448 48.1895 40.3448C46.9523 40.3448 45.9482 41.3512 45.9482 42.5862V51.5517C45.9482 54.2414 44.7333 56.6307 42.8506 58.2759C44.7333 59.921 45.9482 62.3103 45.9482 65V73.9655C45.9482 75.2005 46.9523 76.2069 48.1895 76.2069C49.429 76.2069 50.4309 77.211 50.4309 78.4483C50.4309 79.6855 49.429 80.6897 48.1895 80.6897C44.4823 80.6897 41.4654 77.6728 41.4654 73.9655V65C41.4654 62.5278 39.4549 60.5172 36.9826 60.5172C35.7432 60.5172 34.7413 59.5131 34.7413 58.2759C34.7413 57.0386 35.7432 56.0345 36.9826 56.0345Z" fill="white"/>
</svg>
