<svg width="75" height="75" viewBox="0 0 75 75" fill="none" xmlns="http://www.w3.org/2000/svg">
<g clip-path="url(#clip0)">
<path d="M37.5001 0C16.7901 0 0.000976562 16.7897 0.000976562 37.4996C0.000976562 58.2091 16.7901 75 37.5001 75C58.2101 75 75.0005 58.2091 75.0005 37.4996C75.0005 16.7897 58.2101 0 37.5001 0ZM37.5008 13.1716L59.6918 27.0093H15.3099L37.5008 13.1716ZM59.9683 49.1062H59.9661C59.9661 51.3258 58.1673 53.1243 55.948 53.1243H19.0537C16.8341 53.1243 15.0356 51.3255 15.0356 49.1062V27.8898C15.0356 27.655 15.0596 27.4268 15.0986 27.2025L36.3008 40.4234C36.3268 40.4397 36.3546 40.4507 36.3813 40.4657C36.4093 40.4812 36.4378 40.4962 36.4663 40.5104C36.6161 40.5877 36.7703 40.6499 36.9281 40.6907C36.9443 40.6952 36.9606 40.6972 36.9768 40.7009C37.1498 40.7417 37.3251 40.7672 37.5001 40.7672H37.5014C37.5026 40.7672 37.5038 40.7672 37.5038 40.7672C37.6789 40.7672 37.8541 40.7424 38.0271 40.7009C38.0434 40.6969 38.0596 40.6952 38.0759 40.6907C38.2334 40.6499 38.3871 40.5877 38.5376 40.5104C38.5661 40.4962 38.5946 40.4812 38.6226 40.4657C38.6491 40.4507 38.6771 40.4397 38.7031 40.4234L59.9053 27.2025C59.9443 27.4268 59.9683 27.6545 59.9683 27.8898V49.1062Z" fill="white"/>
</g>
<defs>
<clipPath id="clip0">
<rect width="75" height="75" fill="white"/>
</clipPath>
</defs>
</svg>
