<svg width="75" height="75" viewBox="0 0 75 75" fill="none" xmlns="http://www.w3.org/2000/svg">
<path d="M53.5714 22.7679C53.5714 23.5075 52.9717 24.1072 52.2321 24.1072C51.4925 24.1072 50.8928 23.5075 50.8928 22.7679C50.8928 22.0283 51.4925 21.4286 52.2321 21.4286C52.9717 21.4286 53.5714 22.0283 53.5714 22.7679Z" fill="white"/>
<path d="M54.9108 16.0714H20.0894C17.8705 16.0714 16.0715 17.8704 16.0715 20.0893V54.9107C16.0715 57.1295 17.8705 58.9286 20.0894 58.9286H54.9108C57.1297 58.9286 58.9287 57.1295 58.9287 54.9107V20.0893C58.9287 17.8704 57.1297 16.0714 54.9108 16.0714ZM37.5001 50.8928C30.1033 50.8928 24.1072 44.8968 24.1072 37.5C24.1072 30.1032 30.1033 24.1071 37.5001 24.1071C44.8969 24.1071 50.893 30.1032 50.893 37.5C50.8851 44.8935 44.8936 50.885 37.5001 50.8928ZM52.2322 26.7857C50.0134 26.7857 48.2144 24.9867 48.2144 22.7678C48.2144 20.549 50.0134 18.75 52.2322 18.75C54.4511 18.75 56.2501 20.549 56.2501 22.7678C56.2501 24.9867 54.4511 26.7857 52.2322 26.7857Z" fill="white"/>
<path d="M48.2142 37.5001C48.2142 43.4176 43.4175 48.2143 37.4999 48.2143C31.5824 48.2143 26.7856 43.4176 26.7856 37.5001C26.7856 31.5825 31.5824 26.7858 37.4999 26.7858C43.4175 26.7858 48.2142 31.5825 48.2142 37.5001Z" fill="white"/>
<path d="M37.5 0C16.7895 0 0 16.7895 0 37.5C0 58.2105 16.7895 75 37.5 75C58.2105 75 75 58.2105 75 37.5C74.9765 16.7993 58.2007 0.0235421 37.5 0ZM61.6071 54.9107C61.6026 58.6075 58.6075 61.6026 54.9107 61.6071H20.0893C16.3925 61.6026 13.3974 58.6075 13.3929 54.9107V20.0893C13.3974 16.3925 16.3925 13.3974 20.0893 13.3929H54.9107C58.6075 13.3974 61.6026 16.3925 61.6071 20.0893V54.9107Z" fill="white"/>
</svg>
