<svg width="75" height="75" viewBox="0 0 75 75" fill="none" xmlns="http://www.w3.org/2000/svg">
<path d="M46.1174 22.1512L19.2627 31.1028C17.0532 31.839 15.625 33.8219 15.625 36.1519C15.625 38.4812 17.0532 40.4625 19.2642 41.2003L30.1674 44.8342L33.8013 55.7389C34.5375 57.9468 36.5189 59.375 38.8481 59.375C41.1781 59.375 43.1595 57.9468 43.8973 55.7358L52.8488 28.8811C53.4889 26.9578 52.9968 24.8719 51.5625 23.4375C50.1282 22.0032 48.0393 21.5081 46.1174 22.1512ZM38.8481 51.117L35.1059 39.8919L23.8815 36.1504L46.3295 28.6675L38.8481 51.117Z" fill="white"/>
<path d="M37.5 0C16.8221 0 0 16.8221 0 37.5C0 58.1779 16.8221 75 37.5 75C58.1779 75 75 58.1779 75 37.5C75 16.8221 58.1779 0 37.5 0ZM37.5 68.75C20.269 68.75 6.25 54.731 6.25 37.5C6.25 20.269 20.269 6.25 37.5 6.25C54.731 6.25 68.75 20.269 68.75 37.5C68.75 54.731 54.731 68.75 37.5 68.75Z" fill="white"/>
</svg>
