<svg width="75" height="75" viewBox="0 0 75 75" fill="none" xmlns="http://www.w3.org/2000/svg">
<path d="M37.5 0C16.79 0 0 16.7893 0 37.5C0 58.2107 16.79 75 37.5 75C58.21 75 75 58.2107 75 37.5C75 16.7893 58.21 0 37.5 0ZM56.522 41.5558C58.2698 43.2629 60.1189 44.8696 61.688 46.7532C62.3831 47.5864 63.0384 48.4481 63.5371 49.4171C64.2491 50.799 63.6061 52.3143 62.3693 52.3964L54.6867 52.3949C52.7026 52.5591 51.1235 51.7588 49.7923 50.4023C48.7297 49.3212 47.7437 48.1665 46.7202 47.0486C46.302 46.5898 45.8616 46.1578 45.3368 45.8179C44.2895 45.1366 43.3795 45.3453 42.7795 46.4394C42.168 47.5527 42.0284 48.7864 41.9701 50.0256C41.8864 51.8371 41.3402 52.3105 39.5225 52.3957C35.6386 52.5775 31.9535 51.9882 28.5284 50.0302C25.5069 48.3031 23.1683 45.8655 21.1304 43.1056C17.1621 37.7256 14.123 31.8207 11.3923 25.7463C10.7777 24.3783 11.2274 23.6463 12.7366 23.6179C15.244 23.5696 17.7514 23.5757 20.2588 23.6156C21.2793 23.6317 21.9545 24.2156 22.3465 25.1785C23.7015 28.5123 25.3627 31.6841 27.4442 34.6258C27.999 35.4092 28.5652 36.1903 29.3716 36.7435C30.2616 37.3542 30.9399 37.1524 31.3596 36.1588C31.6281 35.5274 31.744 34.8522 31.8023 34.1754C32.0018 31.8575 32.0256 29.5404 31.6803 27.2317C31.4655 25.787 30.6529 24.854 29.2128 24.5808C28.4793 24.4419 28.5867 24.1703 28.9435 23.7514C29.5627 23.0271 30.1427 22.579 31.302 22.579L39.9821 22.5775C41.3501 22.846 41.657 23.4598 41.8427 24.8379L41.8504 34.4839C41.8343 35.0171 42.1182 36.5977 43.0757 36.9468C43.843 37.2 44.3494 36.5847 44.8082 36.099C46.8898 33.89 48.3729 31.2829 49.701 28.5844C50.2872 27.3944 50.7928 26.1629 51.2839 24.9292C51.6491 24.0169 52.2169 23.568 53.2465 23.5834L61.6051 23.5933C61.8514 23.5933 62.1015 23.5957 62.3455 23.6379C63.7542 23.8788 64.1402 24.4849 63.7043 25.8591C63.0184 28.0182 61.6857 29.8166 60.3829 31.6197C58.9864 33.5501 57.4972 35.413 56.1146 37.3519C54.844 39.1243 54.9445 40.0166 56.522 41.5558Z" fill="white"/>
</svg>
