<svg width="130" height="130" viewBox="0 0 130 130" fill="none" xmlns="http://www.w3.org/2000/svg">
<path d="M65 0C29.1606 0 0 29.1606 0 65C0 100.839 29.1606 130 65 130C100.839 130 130 100.839 130 65C130 29.1606 100.839 0 65 0ZM65 8.125C76.4806 8.125 87.1569 11.57 96.1025 17.4444C92.9906 19.175 90.1063 22.815 90.1063 30.55C90.1063 34.6613 92.9094 39.4306 96.1512 44.9556C100.043 51.5856 104.869 59.8325 103.659 65.7881C102.326 69.7288 98.9463 78.6744 95.2819 88.2212L78.4875 39.9588C78.8288 39.8694 79.2106 39.8125 79.5356 39.7069C81.6644 39 82.81 36.7006 82.1031 34.5719C81.3881 32.4431 79.0969 31.3137 76.96 32.0044C73.4987 33.1581 67.2344 33.1338 63.4725 33.1256H62.3431H61.2137C57.4762 33.1338 51.1875 33.1581 47.7262 32.0044C45.6219 31.2894 43.3144 32.4431 42.5994 34.5719C41.8844 36.7006 43.0381 39 45.1669 39.7069C46.8812 40.2838 48.9044 40.5925 50.9681 40.82L60.9619 66.8037L51.5125 90.6425L35.3681 40.1375C35.9613 39.9994 36.595 39.8937 37.1394 39.7069C39.2681 39 40.4219 36.7006 39.7069 34.5719C38.9919 32.4431 36.7006 31.2894 34.5719 32.0044C31.1188 33.1581 24.8381 33.1256 21.0763 33.1256H19.9631C19.2319 33.1256 18.6306 33.0688 18.0131 33.02C28.2588 18.005 45.4919 8.125 65 8.125ZM8.125 65C8.125 58.6138 9.23 52.4875 11.18 46.7513L36.1075 113.904C19.3944 103.984 8.125 85.8081 8.125 65ZM65 121.875C59.3775 121.875 53.9581 121.022 48.8231 119.503L65.2681 78L81.2256 119.494C76.0825 121.022 70.6387 121.875 65 121.875ZM94.0794 113.783C99.3444 100.287 108.412 76.9112 111.134 69.0056L111.239 69.0381C111.353 68.7131 111.475 68.2906 111.556 67.795C112.474 65.2438 113.254 62.9119 113.88 60.9456C115.887 54.6 117.162 49.0181 117.829 44.0781C120.412 50.5619 121.875 57.6063 121.875 65C121.875 85.7269 110.695 103.846 94.0794 113.783Z" fill="white"/>
</svg>
